. 
 
http://www.torrenting.com          :     Once & For all ;)


               www . Torrenting . Com 

(((((((((((((= Enjoy No RAR releases =))))))))))))))))))))


...................................NFO:....................................

.





UUUUUUUUUUUUUUUUUUUUUUUU
UUUUUUUUUUUUUUUUUUUUUUUUUUUUUU
UUUUUUUUUUUUUUU
UUUUUUUUU
UUUUUU
UUUUUUU
UUUUUUUUUUU
UUUUUUUUUUU
UUUUUUUUUUUUUU
UUUUUUUUUUU
UUUUUUUUU
UUUUUUUU
UUUUUUUU
UUUUUUUU
UUUUUUUUU
UUUUUUUUU
UUUUUUUUU
UUUUUUUUU
UUUUUUUUUUUUUU
UUUUUUUUUUUUUUUUUUUUUUUU
UUUUUUUUUUUUUUUUUUUUUUUUUU
UUUUUUUUU










U?U?U?U?U?U?U?

EAAUAA?EAAUAAAAAUEAAUAA?AAA?UAAUUAAAAAU
EAA?  EAA?AAAAAA?EAA?        AAAAAA?
  AAAU        
              
UAAAAAU      UAAAAAUAAAAAA?UAAAAAU        AAAAAA?
            AAAAAA?UAAAAAUAAAAAA?        UAAAAAU
                    
                    
AAAU      AAAU      AAAAAAAAAUAAAAAAAAAUAAAAAAAAAUAAAU  AAAU   AAAU   AAAAAAAAAU

Gone.In.60.Seconds.2000.720p.BRRip.XViD.AC3-SIC

Poster:

IMDB Link:
www.imdb.com/title/tt0187078/

Description:
A retired master car thief must come back to the industry and steal 50 cars with 
his crew in one night to save his brother's life. 

MediaInfo:
Format                           : AVI
Format/Info                      : Audio Video Interleave
Format profile                   : OpenDML
File size                        : 2.32 GiB
Duration                         : 1h 57mn
Overall bit rate                 : 2 822 Kbps
Writing library                  : VirtualDub build 31536/release

Video
ID                               : 0
Format                           : MPEG-4 Visual
Format profile                   : Advanced Simple@L5
Format settings, BVOP            : 2
Format settings, QPel            : No
Format settings, GMC             : No warppoints
Format settings, Matrix          : Default (MPEG)
Muxing mode                      : Packed bitstream
Codec ID                         : XVID
Codec ID/Hint                    : XviD
Duration                         : 1h 57mn
Bit rate                         : 2 363 Kbps
Width                            : 1 280 pixels
Height                           : 544 pixels
Display aspect ratio             : 2.35:1
Frame rate                       : 23.976 fps
Color space                      : YUV
Chroma subsampling               : 4:2:0
Bit depth                        : 8 bits
Scan type                        : Progressive
Compression mode                 : Lossy
Bits/(Pixel*Frame)               : 0.142
Stream size                      : 1.95 GiB (84%)
Writing library                  : XviD 64

Audio
ID                               : 1
Format                           : AC-3
Format/Info                      : Audio Coding 3
Mode extension                   : CM (complete main)
Codec ID                         : 2000
Duration                         : 1h 57mn
Bit rate mode                    : Constant
Bit rate                         : 448 Kbps
Channel(s)                       : 6 channels
Channel positions                : Front: L C R, Side: L R, LFE
Sampling rate                    : 48.0 KHz
Bit depth                        : 16 bits
Compression mode                 : Lossy
Stream size                      : 378 MiB (16%)
Alignment                        : Split accross interleaves
Interleave, duration             : 42 ms (1.00 video frame)
Interleave, preload duration     : 500 ms

Screenshots:

Note : 
Just another fine release :P

Source: 
720p DTS x264 DXVA-FLAWL3SS... Thanks 

Enjoy!

Respects to 26K, T00NG0D, ELEKTRI4KA, PA, YeFsTe, Box, MrRep and everyone in the struggle...